<?xml version="1.0" standalone="no"?>
<!DOCTYPE svg PUBLIC "-//W3C//DTD SVG 20010904//EN"
 "http://www.w3.org/TR/2001/REC-SVG-20010904/DTD/svg10.dtd">
<svg version="1.0" xmlns="http://www.w3.org/2000/svg"
 width="917.000000pt" height="917.000000pt" viewBox="0 0 917.000000 917.000000"
 preserveAspectRatio="xMidYMid meet">
<metadata>
Created by potrace 1.14, written by Peter Selinger 2001-2017
</metadata>
<g transform="translate(0.000000,917.000000) scale(0.100000,-0.100000)"
fill="#000000" stroke="none">
<path d="M2232 8989 c-27 -10 -27 -19 19 -208 56 -229 136 -422 277 -663 80
-138 84 -135 -88 -62 -83 35 -154 64 -159 64 -4 0 -41 14 -82 30 -174 72 -242
88 -361 85 -51 -2 -111 -5 -133 -9 -97 -13 -132 -18 -155 -21 -55 -7 -150 -15
-235 -20 -122 -8 -188 -20 -317 -61 -60 -19 -128 -36 -151 -38 -75 -8 -106
-29 -107 -73 0 -38 10 -51 88 -111 111 -84 285 -183 437 -247 67 -28 783 -212
894 -230 48 -8 264 -8 326 0 53 7 187 36 244 54 l34 10 -24 -27 c-13 -15 -26
-29 -30 -32 -3 -3 -52 -63 -109 -135 -57 -71 -110 -136 -117 -143 -49 -50
-143 -228 -143 -270 0 -39 31 -81 64 -88 56 -13 116 -2 209 40 17 8 78 35 135
60 112 49 143 69 332 216 69 53 163 124 210 158 79 55 174 151 244 246 29 39
92 74 150 83 104 17 129 65 151 303 6 65 14 120 21 139 2 8 4 82 4 165 -1 139
-3 189 -14 319 -3 26 -2 47 1 47 3 0 25 -14 47 -32 47 -35 98 -98 253 -313 60
-82 116 -159 125 -170 158 -193 249 -307 271 -336 l27 -36 -23 -20 c-27 -26
-94 -49 -165 -57 -30 -4 -61 -10 -70 -15 -10 -5 -35 -12 -57 -16 -45 -8 -248
-76 -370 -124 -120 -47 -227 -105 -248 -134 -19 -25 -19 -26 2 -56 41 -57 35
-55 331 -76 116 -9 190 -25 254 -56 33 -16 61 -27 64 -25 2 3 15 -7 28 -21 24
-26 24 -40 3 -123 -5 -19 -9 -57 -9 -84 0 -169 199 -224 301 -83 27 37 139
225 186 312 9 17 24 36 34 42 9 7 19 23 23 37 3 13 22 38 42 56 31 27 38 30
46 17 12 -23 117 -59 168 -58 59 1 191 47 211 75 25 32 6 72 -74 157 -37 39
-66 76 -64 82 8 26 83 52 152 53 93 1 132 -9 239 -61 164 -79 251 -186 260
-320 3 -50 0 -60 -22 -83 -35 -38 -82 -140 -87 -192 -7 -73 56 -161 141 -196
42 -18 150 -17 284 1 88 11 109 12 130 1 14 -8 54 -30 90 -50 56 -31 93 -46
160 -63 8 -3 49 -7 90 -10 87 -6 104 4 104 65 0 29 -8 42 -43 74 -47 41 -82
53 -181 62 -86 8 -182 42 -230 83 -43 37 -72 41 -128 17 -47 -20 -109 -29
-197 -29 -69 0 -70 0 -73 27 -3 22 6 36 42 69 92 84 84 222 -25 411 -77 133
-183 216 -370 291 -85 34 -150 48 -226 49 -81 1 -170 -41 -237 -111 -60 -66
-63 -107 -11 -157 20 -18 49 -41 65 -51 35 -20 34 -34 -1 -44 -68 -19 -90 -12
-148 51 -40 43 -63 60 -81 60 -37 0 -43 -7 -83 -90 -41 -86 -129 -230 -190
-310 -23 -30 -48 -67 -56 -82 -7 -15 -29 -42 -48 -60 l-35 -33 7 40 c27 152
-5 223 -125 278 -92 43 -230 88 -310 103 -50 9 -87 20 -85 24 17 27 318 128
430 145 96 13 209 49 275 86 83 47 54 135 -116 344 -40 50 -86 104 -101 120
-70 75 -168 201 -254 330 -176 261 -347 394 -466 363 -46 -12 -51 -43 -19
-115 14 -32 30 -80 36 -108 8 -46 6 -274 -3 -320 -3 -11 -8 -45 -12 -75 -12
-104 -36 -235 -52 -292 -17 -61 -40 -80 -112 -91 -18 -3 -58 -16 -87 -28 -52
-20 -56 -25 -88 -93 -40 -87 -84 -132 -275 -280 -253 -195 -393 -286 -465
-302 -17 -3 -46 -15 -63 -26 -50 -30 -59 -13 -20 35 19 23 41 56 50 74 27 51
131 177 221 266 51 50 171 145 307 242 219 157 313 215 350 215 11 0 28 9 39
20 45 45 8 154 -92 276 -29 34 -154 163 -278 286 -182 181 -258 248 -400 354
-216 162 -285 208 -330 222 -48 15 -170 22 -198 11z m229 -149 c35 -18 175
-117 239 -167 30 -24 73 -59 95 -76 67 -53 122 -105 284 -268 210 -209 308
-315 314 -340 8 -30 -29 -60 -305 -257 -44 -31 -64 -23 -156 61 -98 88 -199
223 -296 395 -81 143 -185 358 -212 439 -27 81 -29 89 -39 185 l-6 57 29 -8
c16 -5 40 -14 53 -21z m-347 -785 c386 -152 434 -176 592 -291 84 -60 150
-112 147 -116 -2 -5 -13 -8 -23 -8 -11 0 -65 -15 -119 -34 -55 -19 -117 -37
-138 -41 -21 -3 -60 -10 -88 -15 -50 -9 -351 -6 -391 3 -12 3 -38 8 -58 11
-94 15 -203 41 -346 83 -85 25 -202 58 -260 73 -122 32 -210 65 -297 109 -84
42 -206 121 -198 129 3 3 18 8 33 10 15 1 43 12 64 22 65 33 164 52 338 65
131 9 270 24 321 33 26 5 82 10 125 11 43 1 80 4 81 5 13 13 125 -12 217 -49z"/>
<path d="M7210 7555 c-63 -13 -105 -33 -175 -85 -67 -50 -213 -197 -233 -234
-25 -49 -40 -127 -30 -163 9 -34 60 -83 86 -83 34 0 41 15 40 80 -1 88 21 128
122 223 97 91 127 109 196 113 88 5 129 -12 204 -85 130 -128 171 -195 172
-285 2 -122 -41 -205 -178 -341 -123 -123 -165 -158 -308 -257 -183 -127 -320
-207 -451 -263 -87 -37 -300 -105 -373 -119 -42 -8 -88 -19 -102 -24 -14 -5
-59 -15 -100 -21 -184 -28 -246 -65 -275 -164 -30 -102 -9 -286 45 -381 76
-136 110 -162 263 -201 176 -45 277 -48 402 -15 44 12 88 23 97 25 74 16 202
122 292 244 113 152 158 177 291 169 55 -4 95 -16 182 -53 120 -51 174 -88
200 -138 27 -52 42 -135 38 -211 -7 -135 -23 -179 -77 -217 -18 -13 -39 -29
-46 -36 -7 -7 -74 -54 -150 -104 -241 -161 -282 -200 -344 -328 -38 -77 -41
-92 -44 -176 -4 -102 17 -198 61 -285 39 -76 118 -165 170 -190 42 -20 57 -22
133 -17 101 7 160 27 256 85 72 44 98 52 181 56 28 1 58 6 67 10 13 6 23 -2
43 -32 28 -43 28 -41 25 -153 -3 -89 17 -142 61 -164 28 -15 70 -8 83 14 3 5
42 30 86 55 88 51 112 79 82 95 -13 7 -36 6 -74 -3 -42 -10 -64 -10 -88 -2
-36 12 -35 9 -44 127 -3 41 -9 87 -15 100 -28 75 -116 127 -193 115 -49 -8
-156 -57 -211 -97 -46 -34 -168 -85 -220 -93 -122 -19 -282 168 -304 355 -11
90 72 214 200 301 32 22 111 69 175 105 219 122 250 157 294 323 29 111 25
226 -13 368 -37 139 -75 186 -201 245 -180 85 -411 113 -508 62 -35 -18 -86
-70 -133 -135 -117 -161 -281 -269 -452 -296 -200 -31 -349 19 -443 149 -35
50 -50 100 -56 186 -7 98 23 123 209 171 44 11 96 23 115 26 76 12 270 67 355
101 381 151 853 470 1003 679 70 96 98 185 101 310 3 172 -42 267 -207 438
-109 111 -181 142 -282 121z"/>
<path d="M1971 7082 c-12 -23 -4 -81 24 -167 26 -78 130 -369 144 -400 51
-116 86 -183 134 -256 30 -47 79 -130 108 -185 28 -54 74 -135 102 -178 72
-114 77 -138 73 -334 -3 -149 -7 -180 -35 -287 -120 -455 -150 -570 -156 -600
-2 -16 -7 -41 -10 -55 -2 -14 -9 -47 -15 -75 -16 -80 -19 -106 -24 -180 -22
-304 -29 -350 -71 -461 -26 -68 -90 -302 -100 -364 -12 -71 -47 -185 -84 -274
-110 -258 -88 -381 87 -497 92 -62 135 -81 222 -100 64 -14 295 -19 395 -9
l49 5 9 -45 c4 -25 6 -76 3 -113 -6 -77 -49 -179 -120 -281 -36 -52 -41 -65
-41 -117 0 -46 4 -62 23 -82 23 -24 23 -26 7 -57 -25 -49 -21 -99 15 -176 18
-38 36 -71 40 -74 3 -3 23 -32 43 -65 20 -33 63 -89 97 -125 103 -110 110
-122 125 -207 8 -43 12 -108 9 -143 -7 -113 -7 -353 0 -420 16 -147 50 -227
135 -321 85 -95 182 -153 306 -183 113 -27 140 -30 340 -30 280 -1 324 4 685
86 705 159 890 207 1066 278 54 22 101 40 106 40 5 0 33 11 61 24 29 13 61 26
73 30 12 3 30 22 40 42 l19 36 -23 18 c-25 21 -49 17 -117 -18 -174 -90 -478
-194 -660 -226 -58 -10 -311 -67 -405 -91 -171 -43 -361 -82 -495 -100 -22 -3
-49 -7 -60 -10 -73 -15 -373 -24 -440 -13 -27 5 -68 11 -90 14 -71 9 -185 43
-224 68 -47 30 -134 127 -157 174 -9 19 -27 66 -41 106 -24 67 -25 83 -26 281
0 116 1 224 3 240 4 38 -8 147 -22 200 -16 65 -37 96 -102 161 -66 64 -134
177 -160 264 -17 55 -13 76 12 82 31 8 240 0 309 -11 37 -7 113 -12 168 -13
183 -3 276 17 288 60 11 44 0 47 -250 53 -131 3 -251 9 -268 12 -16 3 -75 8
-129 12 -94 5 -174 27 -189 52 -4 6 8 32 26 58 65 97 77 122 108 215 24 74 32
116 34 188 1 51 5 95 8 98 3 3 18 -1 34 -9 77 -40 177 -27 217 27 25 33 52 98
60 141 9 50 -21 84 -79 90 -39 4 -58 -43 -35 -86 13 -24 -11 -74 -39 -82 -40
-10 -233 81 -336 159 -93 71 -131 87 -205 90 -78 2 -126 -10 -140 -36 -21 -39
12 -64 98 -75 116 -14 125 -17 156 -46 17 -16 39 -32 49 -35 90 -29 -168 -45
-296 -18 -139 29 -277 105 -316 174 -12 22 -25 64 -28 93 -5 46 0 66 31 143
58 139 92 242 116 350 12 54 42 167 67 249 25 83 56 185 69 227 16 55 24 115
29 205 3 71 7 139 9 153 2 14 8 52 11 85 21 174 45 295 89 448 75 261 136 492
144 543 9 57 8 236 -2 315 -4 30 -22 84 -39 119 -81 160 -192 356 -260 457
-41 61 -85 140 -100 175 -39 97 -101 258 -158 413 -67 183 -100 229 -128 177z"/>
<path d="M3003 5384 c-18 -9 -35 -25 -39 -36 -7 -24 20 -68 44 -69 9 -1 53 -2
97 -3 44 -1 112 -9 150 -18 39 -9 100 -22 136 -28 78 -14 172 -58 177 -84 2
-10 -12 -43 -31 -74 -56 -92 -69 -153 -53 -241 15 -80 117 -162 246 -196 48
-13 53 -12 172 10 112 21 245 70 468 172 98 45 184 73 240 79 81 8 103 21 96
59 -4 16 -17 41 -30 54 -20 20 -36 24 -102 27 -44 2 -90 6 -103 8 -13 3 -48 8
-77 11 -30 3 -80 8 -111 11 -87 8 -138 20 -248 54 -55 18 -122 39 -150 47 -27
8 -129 44 -225 80 -213 79 -272 98 -392 123 -138 30 -226 34 -265 14z m767
-335 c52 -12 87 -40 95 -78 14 -65 14 -78 4 -110 -17 -52 -56 -85 -112 -97
-30 -6 -103 15 -120 35 -19 21 -40 88 -39 122 1 32 42 101 74 123 26 19 37 19
98 5z m373 -64 c40 -8 103 -17 140 -20 38 -2 73 -8 79 -11 32 -20 -345 -197
-386 -181 -10 4 -10 16 -1 64 6 32 10 76 9 98 -6 67 26 77 159 50z"/>
<path d="M3719 4996 c-51 -25 -76 -123 -41 -165 28 -35 57 -34 97 3 41 39 48
83 24 132 -16 32 -51 45 -80 30z"/>
</g>
</svg>
